<?xml version="1.0" encoding="us-ascii" standalone="no"?><svg xmlns="http://www.w3.org/2000/svg" xmlns:xlink="http://www.w3.org/1999/xlink" contentStyleType="text/css" height="723px" preserveAspectRatio="none" style="width:2634px;height:723px;background:#FEFEFE;" version="1.1" viewBox="0 0 2634 723" width="2634px" zoomAndPan="magnify"><defs/><g><rect fill="#FEFEFE" height="723" style="stroke:none;stroke-width:1.0;" width="2634" x="0" y="0"/><text fill="#888888" font-family="Monospace" font-size="10" lengthAdjust="spacing" textLength="174" x="2425.2854" y="9.668">Diagram&#160;depicting&#160;the&#160;relationships</text><text fill="#888888" font-family="Monospace" font-size="10" lengthAdjust="spacing" textLength="216" x="2404.2854" y="21.4453">between&#160;programming&#160;languages,&#160;compilers</text><text fill="#888888" font-family="Monospace" font-size="10" lengthAdjust="spacing" textLength="101" x="2461.7854" y="33.2227">and&#160;virtual&#160;machines</text><text fill="#000000" font-family="Monospace" font-size="14" font-weight="bold" lengthAdjust="spacing" textLength="115" x="1250.1427" y="59.8672">Language&#160;Graph</text><text fill="#000000" font-family="Monospace" font-size="14" font-weight="bold" lengthAdjust="spacing" textLength="56" x="1284.6427" y="76.3555">%page%</text><g id="cluster_##95"><path d="M2304.183,113.8356 C2310.2741,103.46 2320.6969,105.3707 2326.066,114.6398 C2330.9786,102.7113 2338.6886,102.9577 2347.2735,110.6758 C2354.6591,99.6012 2363.6072,103.4386 2368.9746,112.8172 C2373.3615,100.8456 2384.3873,100.0205 2392.2687,108.9165 C2398.8209,100.8347 2406.9735,100.6398 2410.8347,111.5475 C2416.4315,101.9779 2423.1245,100.1768 2431.0282,109.017 C2439.4388,98.0483 2447.86,98.6724 2455.8121,109.5374 C2460.8792,100.4392 2468.6233,99.5802 2475.4829,107.4606 C2482.1044,98.4691 2492.2514,96.3086 2498.2924,108.0976 C2504.9637,98.7163 2514.3888,99.9198 2518.5989,110.59 C2526.8023,102.7942 2533.4284,102.1569 2539.7699,112.7353 C2545.3869,104.6496 2552.4425,102.8509 2558.5135,112.2485 C2566.4719,100.7086 2574.6406,100.1483 2582.6528,112.1934 C2589.9686,105.4117 2597.6126,105.0382 2601.1604,116.1013 C2619.1572,120.4404 2621.7084,130.5589 2612.7903,145.5333 C2627.2854,159.5122 2620.4861,174.2486 2602.0211,176.9178 C2597.1976,186.9348 2587.3554,187.9978 2581.789,177.656 C2575.7679,190.0022 2566.5724,188.8969 2558.3169,180.1414 C2553.7329,190.0353 2546.648,189.3453 2540.0671,182.2918 C2533.864,192.9069 2525.3197,191.702 2518.637,182.8191 C2513.0501,193.8249 2503.8069,194.2234 2497.1075,183.9445 C2491.0911,195.1504 2483.6733,196.1942 2475.032,186.7506 C2467.4337,196.9151 2460.8392,195.6864 2453.7872,186.1611 C2446.2391,194.9898 2438.5282,193.2319 2433.3375,183.556 C2426.9348,195.0125 2417.1096,191.7143 2411.7064,182.5096 C2405.7428,191.1353 2397.7081,192.3726 2392.0526,182.1877 C2385.148,192.1212 2377.4784,191.8205 2370.9597,181.7803 C2364.7481,191.8019 2353.221,192.4298 2347.6903,181.0403 C2340.2177,190.2963 2331.7287,187.2192 2327.7252,177.4079 C2320.2003,189.7484 2312.1697,189.4284 2304.8795,177.1898 C2289.3054,167.1823 2288.3633,156.7625 2301.3626,143.7499 C2289.4364,134.7052 2290.4903,120.4649 2304.183,113.8356 " fill="none" style="stroke:#181818;stroke-width:1.0;"/></g><!--entity Comp--><g id="elem_Comp"><rect fill="#B5E4EA" height="46.4883" rx="2.5" ry="2.5" style="stroke:#181818;stroke-width:0.5;" width="103" x="2312" y="120.4688"/><rect fill="#B5E4EA" height="10" style="stroke:#181818;stroke-width:0.5;" width="15" x="2395" y="125.4688"/><rect fill="#B5E4EA" height="2" style="stroke:#181818;stroke-width:0.5;" width="4" x="2393" y="127.4688"/><rect fill="#B5E4EA" height="2" style="stroke:#181818;stroke-width:0.5;" width="4" x="2393" y="131.4688"/><text fill="#000000" font-family="sans-serif" font-size="14" lengthAdjust="spacing" textLength="63" x="2327" y="154.0039">Compiler</text></g><!--entity VM--><g id="elem_VM"><polygon fill="#E4CDEF" points="2450.5,130.4688,2460.5,120.4688,2592.5,120.4688,2592.5,156.9571,2582.5,166.9571,2450.5,166.9571,2450.5,130.4688" style="stroke:#000000;stroke-width:0.5;"/><line style="stroke:#000000;stroke-width:0.5;" x1="2582.5" x2="2592.5" y1="130.4688" y2="120.4688"/><line style="stroke:#000000;stroke-width:0.5;" x1="2450.5" x2="2582.5" y1="130.4688" y2="130.4688"/><line style="stroke:#000000;stroke-width:0.5;" x1="2582.5" x2="2582.5" y1="130.4688" y2="166.9571"/><text fill="#000000" font-family="sans-serif" font-size="14" lengthAdjust="spacing" textLength="102" x="2465.5" y="154.0039">VirtualMachine</text></g><!--entity Python--><g id="elem_Python"><rect fill="#F1F1F1" height="36.4883" rx="2.5" ry="2.5" style="stroke:#181818;stroke-width:0.5;" width="67" x="779" y="125.4688"/><text fill="#000000" font-family="sans-serif" font-size="14" lengthAdjust="spacing" textLength="47" x="789" y="149.0039">Python</text></g><!--entity Java--><g id="elem_Java"><rect fill="#F1F1F1" height="36.4883" rx="2.5" ry="2.5" style="stroke:#181818;stroke-width:0.5;" width="47" x="1222" y="333.4488"/><text fill="#000000" font-family="sans-serif" font-size="14" lengthAdjust="spacing" textLength="27" x="1232" y="356.9839">Java</text></g><!--entity JavaScript--><g id="elem_JavaScript"><rect fill="#F1F1F1" height="36.4883" rx="2.5" ry="2.5" style="stroke:#181818;stroke-width:0.5;" width="86" x="939.5" y="333.4488"/><text fill="#000000" font-family="sans-serif" font-size="14" lengthAdjust="spacing" textLength="66" x="949.5" y="356.9839">JavaScript</text></g><!--entity C--><g id="elem_C"><rect fill="#F1F1F1" height="36.4883" rx="2.5" ry="2.5" style="stroke:#181818;stroke-width:0.5;" width="30" x="578.5" y="333.4488"/><text fill="#000000" font-family="sans-serif" font-size="14" lengthAdjust="spacing" textLength="10" x="588.5" y="356.9839">C</text></g><!--entity Cpp--><g id="elem_Cpp"><rect fill="#F1F1F1" height="36.4883" rx="2.5" ry="2.5" style="stroke:#181818;stroke-width:0.5;" width="52" x="749.5" y="536.4188"/><text fill="#000000" font-family="sans-serif" font-size="14" lengthAdjust="spacing" textLength="32" x="759.5" y="559.9539">C++</text></g><!--entity Go--><g id="elem_Go"><rect fill="#F1F1F1" height="36.4883" rx="2.5" ry="2.5" style="stroke:#181818;stroke-width:0.5;" width="39" x="1557" y="125.4688"/><text fill="#000000" font-family="sans-serif" font-size="14" lengthAdjust="spacing" textLength="19" x="1567" y="149.0039">Go</text></g><!--entity Rust--><g id="elem_Rust"><rect fill="#F1F1F1" height="36.4883" rx="2.5" ry="2.5" style="stroke:#181818;stroke-width:0.5;" width="50" x="1701.5" y="125.4688"/><text fill="#000000" font-family="sans-serif" font-size="14" lengthAdjust="spacing" textLength="30" x="1711.5" y="149.0039">Rust</text></g><!--entity Ruby--><g id="elem_Ruby"><rect fill="#F1F1F1" height="36.4883" rx="2.5" ry="2.5" style="stroke:#181818;stroke-width:0.5;" width="54" x="218.5" y="125.4688"/><text fill="#000000" font-family="sans-serif" font-size="14" lengthAdjust="spacing" textLength="34" x="228.5" y="149.0039">Ruby</text></g><!--entity PHP--><g id="elem_PHP"><rect fill="#F1F1F1" height="36.4883" rx="2.5" ry="2.5" style="stroke:#181818;stroke-width:0.5;" width="46" x="371.5" y="125.4688"/><text fill="#000000" font-family="sans-serif" font-size="14" lengthAdjust="spacing" textLength="26" x="381.5" y="149.0039">PHP</text></g><!--entity CSharp--><g id="elem_CSharp"><rect fill="#F1F1F1" height="36.4883" rx="2.5" ry="2.5" style="stroke:#181818;stroke-width:0.5;" width="39" x="1844" y="125.4688"/><text fill="#000000" font-family="sans-serif" font-size="14" lengthAdjust="spacing" textLength="19" x="1854" y="149.0039">C#</text></g><!--entity Swift--><g id="elem_Swift"><rect fill="#F1F1F1" height="36.4883" rx="2.5" ry="2.5" style="stroke:#181818;stroke-width:0.5;" width="53" x="822" y="333.4488"/><text fill="#000000" font-family="sans-serif" font-size="14" lengthAdjust="spacing" textLength="33" x="832" y="356.9839">Swift</text></g><!--entity Kotlin--><g id="elem_Kotlin"><rect fill="#F1F1F1" height="36.4883" rx="2.5" ry="2.5" style="stroke:#181818;stroke-width:0.5;" width="60" x="1377.5" y="125.4688"/><text fill="#000000" font-family="sans-serif" font-size="14" lengthAdjust="spacing" textLength="40" x="1387.5" y="149.0039">Kotlin</text></g><!--entity TypeScript--><g id="elem_TypeScript"><rect fill="#F1F1F1" height="36.4883" rx="2.5" ry="2.5" style="stroke:#181818;stroke-width:0.5;" width="92" x="1947.5" y="125.4688"/><text fill="#000000" font-family="sans-serif" font-size="14" lengthAdjust="spacing" textLength="72" x="1957.5" y="149.0039">TypeScript</text></g><!--entity Haskell--><g id="elem_Haskell"><rect fill="#F1F1F1" height="36.4883" rx="2.5" ry="2.5" style="stroke:#181818;stroke-width:0.5;" width="69" x="2074" y="125.4688"/><text fill="#000000" font-family="sans-serif" font-size="14" lengthAdjust="spacing" textLength="49" x="2084" y="149.0039">Haskell</text></g><!--entity Scala--><g id="elem_Scala"><rect fill="#F1F1F1" height="36.4883" rx="2.5" ry="2.5" style="stroke:#181818;stroke-width:0.5;" width="55" x="2222" y="125.4688"/><text fill="#000000" font-family="sans-serif" font-size="14" lengthAdjust="spacing" textLength="35" x="2232" y="149.0039">Scala</text></g><!--entity Perl--><g id="elem_Perl"><rect fill="#F1F1F1" height="36.4883" rx="2.5" ry="2.5" style="stroke:#181818;stroke-width:0.5;" width="46" x="507.5" y="125.4688"/><text fill="#000000" font-family="sans-serif" font-size="14" lengthAdjust="spacing" textLength="26" x="517.5" y="149.0039">Perl</text></g><!--entity Lua--><g id="elem_Lua"><rect fill="#F1F1F1" height="36.4883" rx="2.5" ry="2.5" style="stroke:#181818;stroke-width:0.5;" width="44" x="644.5" y="125.4688"/><text fill="#000000" font-family="sans-serif" font-size="14" lengthAdjust="spacing" textLength="24" x="654.5" y="149.0039">Lua</text></g><!--entity Elixir--><g id="elem_Elixir"><rect fill="#F1F1F1" height="36.4883" rx="2.5" ry="2.5" style="stroke:#181818;stroke-width:0.5;" width="55" x="7" y="125.4688"/><text fill="#000000" font-family="sans-serif" font-size="14" lengthAdjust="spacing" textLength="35" x="17" y="149.0039">Elixir</text></g><!--entity Erlang--><g id="elem_Erlang"><rect fill="#F1F1F1" height="36.4883" rx="2.5" ry="2.5" style="stroke:#181818;stroke-width:0.5;" width="64" x="97.5" y="125.4688"/><text fill="#000000" font-family="sans-serif" font-size="14" lengthAdjust="spacing" textLength="44" x="107.5" y="149.0039">Erlang</text></g><!--entity R--><g id="elem_R"><rect fill="#F1F1F1" height="36.4883" rx="2.5" ry="2.5" style="stroke:#181818;stroke-width:0.5;" width="29" x="1083" y="125.4688"/><text fill="#000000" font-family="sans-serif" font-size="14" lengthAdjust="spacing" textLength="9" x="1093" y="149.0039">R</text></g><!--entity Clojure--><g id="elem_Clojure"><rect fill="#F1F1F1" height="36.4883" rx="2.5" ry="2.5" style="stroke:#181818;stroke-width:0.5;" width="70" x="1210.5" y="125.4688"/><text fill="#000000" font-family="sans-serif" font-size="14" lengthAdjust="spacing" textLength="50" x="1220.5" y="149.0039">Clojure</text></g><!--entity Lisp--><g id="elem_Lisp"><rect fill="#F1F1F1" height="36.4883" rx="2.5" ry="2.5" style="stroke:#181818;stroke-width:0.5;" width="47" x="935" y="125.4688"/><text fill="#000000" font-family="sans-serif" font-size="14" lengthAdjust="spacing" textLength="27" x="945" y="149.0039">Lisp</text></g><!--entity Fortran--><g id="elem_Fortran"><rect fill="#F1F1F1" height="36.4883" rx="2.5" ry="2.5" style="stroke:#181818;stroke-width:0.5;" width="71" x="1062" y="333.4488"/><text fill="#000000" font-family="sans-serif" font-size="14" lengthAdjust="spacing" textLength="51" x="1072" y="356.9839">Fortran</text></g><!--entity CPython--><g id="elem_CPython"><rect fill="#B5E4EA" height="46.4883" rx="2.5" ry="2.5" style="stroke:#181818;stroke-width:0.5;" width="97" x="764" y="226.9588"/><rect fill="#B5E4EA" height="10" style="stroke:#181818;stroke-width:0.5;" width="15" x="841" y="231.9588"/><rect fill="#B5E4EA" height="2" style="stroke:#181818;stroke-width:0.5;" width="4" x="839" y="233.9588"/><rect fill="#B5E4EA" height="2" style="stroke:#181818;stroke-width:0.5;" width="4" x="839" y="237.9588"/><text fill="#000000" font-family="sans-serif" font-size="14" lengthAdjust="spacing" textLength="57" x="779" y="260.4939">CPython</text></g><!--entity GCC--><g id="elem_GCC"><rect fill="#B5E4EA" height="46.4883" rx="2.5" ry="2.5" style="stroke:#181818;stroke-width:0.5;" width="70" x="613.5" y="632.9088"/><rect fill="#B5E4EA" height="10" style="stroke:#181818;stroke-width:0.5;" width="15" x="663.5" y="637.9088"/><rect fill="#B5E4EA" height="2" style="stroke:#181818;stroke-width:0.5;" width="4" x="661.5" y="639.9088"/><rect fill="#B5E4EA" height="2" style="stroke:#181818;stroke-width:0.5;" width="4" x="661.5" y="643.9088"/><text fill="#000000" font-family="sans-serif" font-size="14" lengthAdjust="spacing" textLength="30" x="628.5" y="666.4439">GCC</text></g><!--entity Clang--><g id="elem_Clang"><rect fill="#B5E4EA" height="46.4883" rx="2.5" ry="2.5" style="stroke:#181818;stroke-width:0.5;" width="80" x="663.5" y="429.9388"/><rect fill="#B5E4EA" height="10" style="stroke:#181818;stroke-width:0.5;" width="15" x="723.5" y="434.9388"/><rect fill="#B5E4EA" height="2" style="stroke:#181818;stroke-width:0.5;" width="4" x="721.5" y="436.9388"/><rect fill="#B5E4EA" height="2" style="stroke:#181818;stroke-width:0.5;" width="4" x="721.5" y="440.9388"/><text fill="#000000" font-family="sans-serif" font-size="14" lengthAdjust="spacing" textLength="40" x="678.5" y="463.4739">Clang</text></g><!--entity GoCompiler--><g id="elem_GoCompiler"><rect fill="#B5E4EA" height="46.4883" rx="2.5" ry="2.5" style="stroke:#181818;stroke-width:0.5;" width="156" x="1498.5" y="226.9588"/><rect fill="#B5E4EA" height="10" style="stroke:#181818;stroke-width:0.5;" width="15" x="1634.5" y="231.9588"/><rect fill="#B5E4EA" height="2" style="stroke:#181818;stroke-width:0.5;" width="4" x="1632.5" y="233.9588"/><rect fill="#B5E4EA" height="2" style="stroke:#181818;stroke-width:0.5;" width="4" x="1632.5" y="237.9588"/><text fill="#000000" font-family="sans-serif" font-size="14" lengthAdjust="spacing" textLength="116" x="1513.5" y="260.4939">Go Compiler (gc)</text></g><!--entity rustc--><g id="elem_rustc"><rect fill="#B5E4EA" height="46.4883" rx="2.5" ry="2.5" style="stroke:#181818;stroke-width:0.5;" width="74" x="1689.5" y="226.9588"/><rect fill="#B5E4EA" height="10" style="stroke:#181818;stroke-width:0.5;" width="15" x="1743.5" y="231.9588"/><rect fill="#B5E4EA" height="2" style="stroke:#181818;stroke-width:0.5;" width="4" x="1741.5" y="233.9588"/><rect fill="#B5E4EA" height="2" style="stroke:#181818;stroke-width:0.5;" width="4" x="1741.5" y="237.9588"/><text fill="#000000" font-family="sans-serif" font-size="14" lengthAdjust="spacing" textLength="34" x="1704.5" y="260.4939">rustc</text></g><!--entity MRI--><g id="elem_MRI"><rect fill="#B5E4EA" height="46.4883" rx="2.5" ry="2.5" style="stroke:#181818;stroke-width:0.5;" width="103" x="194" y="226.9588"/><rect fill="#B5E4EA" height="10" style="stroke:#181818;stroke-width:0.5;" width="15" x="277" y="231.9588"/><rect fill="#B5E4EA" height="2" style="stroke:#181818;stroke-width:0.5;" width="4" x="275" y="233.9588"/><rect fill="#B5E4EA" height="2" style="stroke:#181818;stroke-width:0.5;" width="4" x="275" y="237.9588"/><text fill="#000000" font-family="sans-serif" font-size="14" lengthAdjust="spacing" textLength="63" x="209" y="260.4939">MRI Ruby</text></g><!--entity Zend--><g id="elem_Zend"><rect fill="#B5E4EA" height="46.4883" rx="2.5" ry="2.5" style="stroke:#181818;stroke-width:0.5;" width="125" x="332" y="226.9588"/><rect fill="#B5E4EA" height="10" style="stroke:#181818;stroke-width:0.5;" width="15" x="437" y="231.9588"/><rect fill="#B5E4EA" height="2" style="stroke:#181818;stroke-width:0.5;" width="4" x="435" y="233.9588"/><rect fill="#B5E4EA" height="2" style="stroke:#181818;stroke-width:0.5;" width="4" x="435" y="237.9588"/><text fill="#000000" font-family="sans-serif" font-size="14" lengthAdjust="spacing" textLength="85" x="347" y="260.4939">Zend Engine</text></g><!--entity Roslyn--><g id="elem_Roslyn"><rect fill="#B5E4EA" height="46.4883" rx="2.5" ry="2.5" style="stroke:#181818;stroke-width:0.5;" width="131" x="1798" y="226.9588"/><rect fill="#B5E4EA" height="10" style="stroke:#181818;stroke-width:0.5;" width="15" x="1909" y="231.9588"/><rect fill="#B5E4EA" height="2" style="stroke:#181818;stroke-width:0.5;" width="4" x="1907" y="233.9588"/><rect fill="#B5E4EA" height="2" style="stroke:#181818;stroke-width:0.5;" width="4" x="1907" y="237.9588"/><text fill="#000000" font-family="sans-serif" font-size="14" lengthAdjust="spacing" textLength="91" x="1813" y="260.4939">.NET / Roslyn</text></g><!--entity SwiftCompiler--><g id="elem_SwiftCompiler"><rect fill="#B5E4EA" height="46.4883" rx="2.5" ry="2.5" style="stroke:#181818;stroke-width:0.5;" width="140" x="778.5" y="429.9388"/><rect fill="#B5E4EA" height="10" style="stroke:#181818;stroke-width:0.5;" width="15" x="898.5" y="434.9388"/><rect fill="#B5E4EA" height="2" style="stroke:#181818;stroke-width:0.5;" width="4" x="896.5" y="436.9388"/><rect fill="#B5E4EA" height="2" style="stroke:#181818;stroke-width:0.5;" width="4" x="896.5" y="440.9388"/><text fill="#000000" font-family="sans-serif" font-size="14" lengthAdjust="spacing" textLength="100" x="793.5" y="463.4739">Swift Compiler</text></g><!--entity KotlinJVM--><g id="elem_KotlinJVM"><rect fill="#B5E4EA" height="46.4883" rx="2.5" ry="2.5" style="stroke:#181818;stroke-width:0.5;" width="112" x="1351.5" y="226.9588"/><rect fill="#B5E4EA" height="10" style="stroke:#181818;stroke-width:0.5;" width="15" x="1443.5" y="231.9588"/><rect fill="#B5E4EA" height="2" style="stroke:#181818;stroke-width:0.5;" width="4" x="1441.5" y="233.9588"/><rect fill="#B5E4EA" height="2" style="stroke:#181818;stroke-width:0.5;" width="4" x="1441.5" y="237.9588"/><text fill="#000000" font-family="sans-serif" font-size="14" lengthAdjust="spacing" textLength="72" x="1366.5" y="260.4939">Kotlin/JVM</text></g><!--entity TSC--><g id="elem_TSC"><rect fill="#B5E4EA" height="46.4883" rx="2.5" ry="2.5" style="stroke:#181818;stroke-width:0.5;" width="59" x="1964" y="226.9588"/><rect fill="#B5E4EA" height="10" style="stroke:#181818;stroke-width:0.5;" width="15" x="2003" y="231.9588"/><rect fill="#B5E4EA" height="2" style="stroke:#181818;stroke-width:0.5;" width="4" x="2001" y="233.9588"/><rect fill="#B5E4EA" height="2" style="stroke:#181818;stroke-width:0.5;" width="4" x="2001" y="237.9588"/><text fill="#000000" font-family="sans-serif" font-size="14" lengthAdjust="spacing" textLength="19" x="1979" y="260.4939">tsc</text></g><!--entity GHC--><g id="elem_GHC"><rect fill="#B5E4EA" height="46.4883" rx="2.5" ry="2.5" style="stroke:#181818;stroke-width:0.5;" width="70" x="2073.5" y="226.9588"/><rect fill="#B5E4EA" height="10" style="stroke:#181818;stroke-width:0.5;" width="15" x="2123.5" y="231.9588"/><rect fill="#B5E4EA" height="2" style="stroke:#181818;stroke-width:0.5;" width="4" x="2121.5" y="233.9588"/><rect fill="#B5E4EA" height="2" style="stroke:#181818;stroke-width:0.5;" width="4" x="2121.5" y="237.9588"/><text fill="#000000" font-family="sans-serif" font-size="14" lengthAdjust="spacing" textLength="30" x="2088.5" y="260.4939">GHC</text></g><!--entity ScalaCompiler--><g id="elem_ScalaCompiler"><rect fill="#B5E4EA" height="46.4883" rx="2.5" ry="2.5" style="stroke:#181818;stroke-width:0.5;" width="142" x="2178.5" y="226.9588"/><rect fill="#B5E4EA" height="10" style="stroke:#181818;stroke-width:0.5;" width="15" x="2300.5" y="231.9588"/><rect fill="#B5E4EA" height="2" style="stroke:#181818;stroke-width:0.5;" width="4" x="2298.5" y="233.9588"/><rect fill="#B5E4EA" height="2" style="stroke:#181818;stroke-width:0.5;" width="4" x="2298.5" y="237.9588"/><text fill="#000000" font-family="sans-serif" font-size="14" lengthAdjust="spacing" textLength="102" x="2193.5" y="260.4939">Scala Compiler</text></g><!--entity Perl5--><g id="elem_Perl5"><rect fill="#B5E4EA" height="46.4883" rx="2.5" ry="2.5" style="stroke:#181818;stroke-width:0.5;" width="76" x="492.5" y="226.9588"/><rect fill="#B5E4EA" height="10" style="stroke:#181818;stroke-width:0.5;" width="15" x="548.5" y="231.9588"/><rect fill="#B5E4EA" height="2" style="stroke:#181818;stroke-width:0.5;" width="4" x="546.5" y="233.9588"/><rect fill="#B5E4EA" height="2" style="stroke:#181818;stroke-width:0.5;" width="4" x="546.5" y="237.9588"/><text fill="#000000" font-family="sans-serif" font-size="14" lengthAdjust="spacing" textLength="36" x="507.5" y="260.4939">perl5</text></g><!--entity LuaImpl--><g id="elem_LuaImpl"><rect fill="#B5E4EA" height="46.4883" rx="2.5" ry="2.5" style="stroke:#181818;stroke-width:0.5;" width="126" x="603.5" y="226.9588"/><rect fill="#B5E4EA" height="10" style="stroke:#181818;stroke-width:0.5;" width="15" x="709.5" y="231.9588"/><rect fill="#B5E4EA" height="2" style="stroke:#181818;stroke-width:0.5;" width="4" x="707.5" y="233.9588"/><rect fill="#B5E4EA" height="2" style="stroke:#181818;stroke-width:0.5;" width="4" x="707.5" y="237.9588"/><text fill="#000000" font-family="sans-serif" font-size="14" lengthAdjust="spacing" textLength="86" x="618.5" y="260.4939">PUC-Rio Lua</text></g><!--entity GNU_R--><g id="elem_GNU_R"><rect fill="#B5E4EA" height="46.4883" rx="2.5" ry="2.5" style="stroke:#181818;stroke-width:0.5;" width="83" x="1056" y="226.9588"/><rect fill="#B5E4EA" height="10" style="stroke:#181818;stroke-width:0.5;" width="15" x="1119" y="231.9588"/><rect fill="#B5E4EA" height="2" style="stroke:#181818;stroke-width:0.5;" width="4" x="1117" y="233.9588"/><rect fill="#B5E4EA" height="2" style="stroke:#181818;stroke-width:0.5;" width="4" x="1117" y="237.9588"/><text fill="#000000" font-family="sans-serif" font-size="14" lengthAdjust="spacing" textLength="43" x="1071" y="260.4939">GNU R</text></g><!--entity ClojureJVM--><g id="elem_ClojureJVM"><rect fill="#B5E4EA" height="46.4883" rx="2.5" ry="2.5" style="stroke:#181818;stroke-width:0.5;" width="141" x="1175" y="226.9588"/><rect fill="#B5E4EA" height="10" style="stroke:#181818;stroke-width:0.5;" width="15" x="1296" y="231.9588"/><rect fill="#B5E4EA" height="2" style="stroke:#181818;stroke-width:0.5;" width="4" x="1294" y="233.9588"/><rect fill="#B5E4EA" height="2" style="stroke:#181818;stroke-width:0.5;" width="4" x="1294" y="237.9588"/><text fill="#000000" font-family="sans-serif" font-size="14" lengthAdjust="spacing" textLength="101" x="1190" y="260.4939">Clojure on JVM</text></g><!--entity LispImpl--><g id="elem_LispImpl"><rect fill="#B5E4EA" height="46.4883" rx="2.5" ry="2.5" style="stroke:#181818;stroke-width:0.5;" width="125" x="896" y="226.9588"/><rect fill="#B5E4EA" height="10" style="stroke:#181818;stroke-width:0.5;" width="15" x="1001" y="231.9588"/><rect fill="#B5E4EA" height="2" style="stroke:#181818;stroke-width:0.5;" width="4" x="999" y="233.9588"/><rect fill="#B5E4EA" height="2" style="stroke:#181818;stroke-width:0.5;" width="4" x="999" y="237.9588"/><text fill="#000000" font-family="sans-serif" font-size="14" lengthAdjust="spacing" textLength="85" x="911" y="260.4939">SBCL / CLISP</text></g><!--entity GFortran--><g id="elem_GFortran"><rect fill="#B5E4EA" height="46.4883" rx="2.5" ry="2.5" style="stroke:#181818;stroke-width:0.5;" width="101" x="1047" y="429.9388"/><rect fill="#B5E4EA" height="10" style="stroke:#181818;stroke-width:0.5;" width="15" x="1128" y="434.9388"/><rect fill="#B5E4EA" height="2" style="stroke:#181818;stroke-width:0.5;" width="4" x="1126" y="436.9388"/><rect fill="#B5E4EA" height="2" style="stroke:#181818;stroke-width:0.5;" width="4" x="1126" y="440.9388"/><text fill="#000000" font-family="sans-serif" font-size="14" lengthAdjust="spacing" textLength="61" x="1062" y="463.4739">GFortran</text></g><!--entity HotSpot--><g id="elem_HotSpot"><polygon fill="#E4CDEF" points="1183.5,439.9388,1193.5,429.9388,1307.5,429.9388,1307.5,466.4271,1297.5,476.4271,1183.5,476.4271,1183.5,439.9388" style="stroke:#000000;stroke-width:0.5;"/><line style="stroke:#000000;stroke-width:0.5;" x1="1297.5" x2="1307.5" y1="439.9388" y2="429.9388"/><line style="stroke:#000000;stroke-width:0.5;" x1="1183.5" x2="1297.5" y1="439.9388" y2="439.9388"/><line style="stroke:#000000;stroke-width:0.5;" x1="1297.5" x2="1297.5" y1="439.9388" y2="476.4271"/><text fill="#000000" font-family="sans-serif" font-size="14" lengthAdjust="spacing" textLength="84" x="1198.5" y="463.4739">HotSpot JVM</text></g><!--entity V8--><g id="elem_V8"><polygon fill="#E4CDEF" points="953.5,439.9388,963.5,429.9388,1011.5,429.9388,1011.5,466.4271,1001.5,476.4271,953.5,476.4271,953.5,439.9388" style="stroke:#000000;stroke-width:0.5;"/><line style="stroke:#000000;stroke-width:0.5;" x1="1001.5" x2="1011.5" y1="439.9388" y2="429.9388"/><line style="stroke:#000000;stroke-width:0.5;" x1="953.5" x2="1001.5" y1="439.9388" y2="439.9388"/><line style="stroke:#000000;stroke-width:0.5;" x1="1001.5" x2="1001.5" y1="439.9388" y2="476.4271"/><text fill="#000000" font-family="sans-serif" font-size="14" lengthAdjust="spacing" textLength="18" x="968.5" y="463.4739">V8</text></g><!--entity BEAM--><g id="elem_BEAM"><polygon fill="#E4CDEF" points="56,236.9588,66,226.9588,159,226.9588,159,263.4471,149,273.4471,56,273.4471,56,236.9588" style="stroke:#000000;stroke-width:0.5;"/><line style="stroke:#000000;stroke-width:0.5;" x1="149" x2="159" y1="236.9588" y2="226.9588"/><line style="stroke:#000000;stroke-width:0.5;" x1="56" x2="149" y1="236.9588" y2="236.9588"/><line style="stroke:#000000;stroke-width:0.5;" x1="149" x2="149" y1="236.9588" y2="273.4471"/><text fill="#000000" font-family="sans-serif" font-size="14" lengthAdjust="spacing" textLength="63" x="71" y="260.4939">BEAM VM</text></g><!--link Python to CPython--><g id="link_Python_CPython"><path d="M812.5,162.2588 C812.5,180.1388 812.5,201.2588 812.5,220.6488 " fill="none" id="Python-to-CPython" style="stroke:#A9A9A9;stroke-width:1.0;"/><polygon fill="#A9A9A9" points="812.5,226.6488,816.5,217.6488,812.5,221.6488,808.5,217.6488,812.5,226.6488" style="stroke:#A9A9A9;stroke-width:1.0;"/></g><!--link Java to HotSpot--><g id="link_Java_HotSpot"><path d="M1245.5,370.3088 C1245.5,387.0088 1245.5,405.6188 1245.5,423.6788 " fill="none" id="Java-to-HotSpot" style="stroke:#A9A9A9;stroke-width:1.0;"/><polygon fill="#A9A9A9" points="1245.5,429.6788,1249.5,420.6788,1245.5,424.6788,1241.5,420.6788,1245.5,429.6788" style="stroke:#A9A9A9;stroke-width:1.0;"/></g><!--link JavaScript to V8--><g id="link_JavaScript_V8"><path d="M982.5,370.3088 C982.5,387.0088 982.5,405.6188 982.5,423.6788 " fill="none" id="JavaScript-to-V8" style="stroke:#A9A9A9;stroke-width:1.0;"/><polygon fill="#A9A9A9" points="982.5,429.6788,986.5,420.6788,982.5,424.6788,978.5,420.6788,982.5,429.6788" style="stroke:#A9A9A9;stroke-width:1.0;"/></g><!--link C to GCC--><g id="link_C_GCC"><path d="M586,370.3188 C586,437.6388 586,664.3988 586,664.3988 C586,664.3988 593.05,664.3988 607.23,664.3988 " fill="none" id="C-to-GCC" style="stroke:#A9A9A9;stroke-width:1.0;"/><polygon fill="#A9A9A9" points="613.23,664.3988,604.23,660.3988,608.23,664.3988,604.23,668.3988,613.23,664.3988" style="stroke:#A9A9A9;stroke-width:1.0;"/></g><!--link GCC to C--><g id="link_GCC_C"><path d="M613.05,648.3988 C602.4,648.3988 593.5,648.3988 593.5,648.3988 C593.5,648.3988 593.5,441.2088 593.5,376.2488 " fill="none" id="GCC-to-C" style="stroke:#A9A9A9;stroke-width:1.0;"/><polygon fill="#A9A9A9" points="593.5,370.2488,589.5,379.2488,593.5,375.2488,597.5,379.2488,593.5,370.2488" style="stroke:#A9A9A9;stroke-width:1.0;"/></g><!--link Cpp to GCC--><g id="link_Cpp_GCC"><path d="M749.23,554.3988 C719.01,554.3988 673.5,554.3988 673.5,554.3988 C673.5,554.3988 673.5,596.4988 673.5,626.5588 " fill="none" id="Cpp-to-GCC" style="stroke:#A9A9A9;stroke-width:1.0;"/><polygon fill="#A9A9A9" points="673.5,632.5588,677.5,623.5588,673.5,627.5588,669.5,623.5588,673.5,632.5588" style="stroke:#A9A9A9;stroke-width:1.0;"/></g><!--link C to Clang--><g id="link_C_Clang"><path d="M601,370.3488 C601,399.7088 601,453.3988 601,453.3988 C601,453.3988 628.57,453.3988 657.28,453.3988 " fill="none" id="C-to-Clang" style="stroke:#A9A9A9;stroke-width:1.0;"/><polygon fill="#A9A9A9" points="663.28,453.3988,654.28,449.3988,658.28,453.3988,654.28,457.3988,663.28,453.3988" style="stroke:#A9A9A9;stroke-width:1.0;"/></g><!--link Cpp to Clang--><g id="link_Cpp_Clang"><path d="M754.33,536.2388 C754.33,509.0588 754.33,461.3988 754.33,461.3988 C754.33,461.3988 755.85,461.3988 749.55,461.3988 " fill="none" id="Cpp-to-Clang" style="stroke:#A9A9A9;stroke-width:1.0;"/><polygon fill="#A9A9A9" points="743.55,461.3988,752.55,465.3988,748.55,461.3988,752.55,457.3988,743.55,461.3988" style="stroke:#A9A9A9;stroke-width:1.0;"/></g><!--link Clang to Cpp--><g id="link_Clang_Cpp"><path d="M743.96,445.3988 C752.59,445.3988 759.17,445.3988 759.17,445.3988 C759.17,445.3988 759.17,498.9588 759.17,530.1288 " fill="none" id="Clang-to-Cpp" style="stroke:#A9A9A9;stroke-width:1.0;"/><polygon fill="#A9A9A9" points="759.17,536.1288,763.17,527.1288,759.17,531.1288,755.17,527.1288,759.17,536.1288" style="stroke:#A9A9A9;stroke-width:1.0;"/></g><!--link Go to GoCompiler--><g id="link_Go_GoCompiler"><path d="M1570,162.2588 C1570,180.1388 1570,201.2588 1570,220.6488 " fill="none" id="Go-to-GoCompiler" style="stroke:#A9A9A9;stroke-width:1.0;"/><polygon fill="#A9A9A9" points="1570,226.6488,1574,217.6488,1570,221.6488,1566,217.6488,1570,226.6488" style="stroke:#A9A9A9;stroke-width:1.0;"/></g><!--link GoCompiler to Go--><g id="link_GoCompiler_Go"><path d="M1583,226.5688 C1583,207.2088 1583,186.1788 1583,168.3288 " fill="none" id="GoCompiler-to-Go" style="stroke:#A9A9A9;stroke-width:1.0;"/><polygon fill="#A9A9A9" points="1583,162.3288,1579,171.3288,1583,167.3288,1587,171.3288,1583,162.3288" style="stroke:#A9A9A9;stroke-width:1.0;"/></g><!--link Rust to rustc--><g id="link_Rust_rustc"><path d="M1718.17,162.2588 C1718.17,180.1388 1718.17,201.2588 1718.17,220.6488 " fill="none" id="Rust-to-rustc" style="stroke:#A9A9A9;stroke-width:1.0;"/><polygon fill="#A9A9A9" points="1718.17,226.6488,1722.17,217.6488,1718.17,221.6488,1714.17,217.6488,1718.17,226.6488" style="stroke:#A9A9A9;stroke-width:1.0;"/></g><!--link rustc to Rust--><g id="link_rustc_Rust"><path d="M1734.83,226.5688 C1734.83,207.2088 1734.83,186.1788 1734.83,168.3288 " fill="none" id="rustc-to-Rust" style="stroke:#A9A9A9;stroke-width:1.0;"/><polygon fill="#A9A9A9" points="1734.83,162.3288,1730.83,171.3288,1734.83,167.3288,1738.83,171.3288,1734.83,162.3288" style="stroke:#A9A9A9;stroke-width:1.0;"/></g><!--link Ruby to MRI--><g id="link_Ruby_MRI"><path d="M245.5,162.2588 C245.5,180.1388 245.5,201.2588 245.5,220.6488 " fill="none" id="Ruby-to-MRI" style="stroke:#A9A9A9;stroke-width:1.0;"/><polygon fill="#A9A9A9" points="245.5,226.6488,249.5,217.6488,245.5,221.6488,241.5,217.6488,245.5,226.6488" style="stroke:#A9A9A9;stroke-width:1.0;"/></g><!--link PHP to Zend--><g id="link_PHP_Zend"><path d="M394.5,162.2588 C394.5,180.1388 394.5,201.2588 394.5,220.6488 " fill="none" id="PHP-to-Zend" style="stroke:#A9A9A9;stroke-width:1.0;"/><polygon fill="#A9A9A9" points="394.5,226.6488,398.5,217.6488,394.5,221.6488,390.5,217.6488,394.5,226.6488" style="stroke:#A9A9A9;stroke-width:1.0;"/></g><!--link CSharp to Roslyn--><g id="link_CSharp_Roslyn"><path d="M1857,162.2588 C1857,180.1388 1857,201.2588 1857,220.6488 " fill="none" id="CSharp-to-Roslyn" style="stroke:#A9A9A9;stroke-width:1.0;"/><polygon fill="#A9A9A9" points="1857,226.6488,1861,217.6488,1857,221.6488,1853,217.6488,1857,226.6488" style="stroke:#A9A9A9;stroke-width:1.0;"/></g><!--link Roslyn to CSharp--><g id="link_Roslyn_CSharp"><path d="M1870,226.5688 C1870,207.2088 1870,186.1788 1870,168.3288 " fill="none" id="Roslyn-to-CSharp" style="stroke:#A9A9A9;stroke-width:1.0;"/><polygon fill="#A9A9A9" points="1870,162.3288,1866,171.3288,1870,167.3288,1874,171.3288,1870,162.3288" style="stroke:#A9A9A9;stroke-width:1.0;"/></g><!--link Swift to SwiftCompiler--><g id="link_Swift_SwiftCompiler"><path d="M848.5,370.3088 C848.5,387.0088 848.5,405.6188 848.5,423.6788 " fill="none" id="Swift-to-SwiftCompiler" style="stroke:#A9A9A9;stroke-width:1.0;"/><polygon fill="#A9A9A9" points="848.5,429.6788,852.5,420.6788,848.5,424.6788,844.5,420.6788,848.5,429.6788" style="stroke:#A9A9A9;stroke-width:1.0;"/></g><!--link Kotlin to KotlinJVM--><g id="link_Kotlin_KotlinJVM"><path d="M1407.5,162.2588 C1407.5,180.1388 1407.5,201.2588 1407.5,220.6488 " fill="none" id="Kotlin-to-KotlinJVM" style="stroke:#A9A9A9;stroke-width:1.0;"/><polygon fill="#A9A9A9" points="1407.5,226.6488,1411.5,217.6488,1407.5,221.6488,1403.5,217.6488,1407.5,226.6488" style="stroke:#A9A9A9;stroke-width:1.0;"/></g><!--link TypeScript to TSC--><g id="link_TypeScript_TSC"><path d="M2003.33,162.2588 C2003.33,180.1388 2003.33,201.2588 2003.33,220.6488 " fill="none" id="TypeScript-to-TSC" style="stroke:#A9A9A9;stroke-width:1.0;"/><polygon fill="#A9A9A9" points="2003.33,226.6488,2007.33,217.6488,2003.33,221.6488,1999.33,217.6488,2003.33,226.6488" style="stroke:#A9A9A9;stroke-width:1.0;"/></g><!--link TSC to TypeScript--><g id="link_TSC_TypeScript"><path d="M1983.67,226.5688 C1983.67,207.2088 1983.67,186.1788 1983.67,168.3288 " fill="none" id="TSC-to-TypeScript" style="stroke:#A9A9A9;stroke-width:1.0;"/><polygon fill="#A9A9A9" points="1983.67,162.3288,1979.67,171.3288,1983.67,167.3288,1987.67,171.3288,1983.67,162.3288" style="stroke:#A9A9A9;stroke-width:1.0;"/></g><!--link Haskell to GHC--><g id="link_Haskell_GHC"><path d="M2097,162.2588 C2097,180.1388 2097,201.2588 2097,220.6488 " fill="none" id="Haskell-to-GHC" style="stroke:#A9A9A9;stroke-width:1.0;"/><polygon fill="#A9A9A9" points="2097,226.6488,2101,217.6488,2097,221.6488,2093,217.6488,2097,226.6488" style="stroke:#A9A9A9;stroke-width:1.0;"/></g><!--link GHC to Haskell--><g id="link_GHC_Haskell"><path d="M2120,226.5688 C2120,207.2088 2120,186.1788 2120,168.3288 " fill="none" id="GHC-to-Haskell" style="stroke:#A9A9A9;stroke-width:1.0;"/><polygon fill="#A9A9A9" points="2120,162.3288,2116,171.3288,2120,167.3288,2124,171.3288,2120,162.3288" style="stroke:#A9A9A9;stroke-width:1.0;"/></g><!--link Scala to ScalaCompiler--><g id="link_Scala_ScalaCompiler"><path d="M2240.33,162.2588 C2240.33,180.1388 2240.33,201.2588 2240.33,220.6488 " fill="none" id="Scala-to-ScalaCompiler" style="stroke:#A9A9A9;stroke-width:1.0;"/><polygon fill="#A9A9A9" points="2240.33,226.6488,2244.33,217.6488,2240.33,221.6488,2236.33,217.6488,2240.33,226.6488" style="stroke:#A9A9A9;stroke-width:1.0;"/></g><!--link ScalaCompiler to Scala--><g id="link_ScalaCompiler_Scala"><path d="M2258.67,226.5688 C2258.67,207.2088 2258.67,186.1788 2258.67,168.3288 " fill="none" id="ScalaCompiler-to-Scala" style="stroke:#A9A9A9;stroke-width:1.0;"/><polygon fill="#A9A9A9" points="2258.67,162.3288,2254.67,171.3288,2258.67,167.3288,2262.67,171.3288,2258.67,162.3288" style="stroke:#A9A9A9;stroke-width:1.0;"/></g><!--link Perl to Perl5--><g id="link_Perl_Perl5"><path d="M530.5,162.2588 C530.5,180.1388 530.5,201.2588 530.5,220.6488 " fill="none" id="Perl-to-Perl5" style="stroke:#A9A9A9;stroke-width:1.0;"/><polygon fill="#A9A9A9" points="530.5,226.6488,534.5,217.6488,530.5,221.6488,526.5,217.6488,530.5,226.6488" style="stroke:#A9A9A9;stroke-width:1.0;"/></g><!--link Lua to LuaImpl--><g id="link_Lua_LuaImpl"><path d="M666.5,162.2588 C666.5,180.1388 666.5,201.2588 666.5,220.6488 " fill="none" id="Lua-to-LuaImpl" style="stroke:#A9A9A9;stroke-width:1.0;"/><polygon fill="#A9A9A9" points="666.5,226.6488,670.5,217.6488,666.5,221.6488,662.5,217.6488,666.5,226.6488" style="stroke:#A9A9A9;stroke-width:1.0;"/></g><!--link Elixir to BEAM--><g id="link_Elixir_BEAM"><path d="M62.38,143.3988 C71.7,143.3988 79.75,143.3988 79.75,143.3988 C79.75,143.3988 79.75,189.0288 79.75,220.4988 " fill="none" id="Elixir-to-BEAM" style="stroke:#A9A9A9;stroke-width:1.0;"/><polygon fill="#A9A9A9" points="79.75,226.4988,83.75,217.4988,79.75,221.4988,75.75,217.4988,79.75,226.4988" style="stroke:#A9A9A9;stroke-width:1.0;"/></g><!--link Erlang to BEAM--><g id="link_Erlang_BEAM"><path d="M128.25,162.2588 C128.25,180.1388 128.25,201.2588 128.25,220.6488 " fill="none" id="Erlang-to-BEAM" style="stroke:#A9A9A9;stroke-width:1.0;"/><polygon fill="#A9A9A9" points="128.25,226.6488,132.25,217.6488,128.25,221.6488,124.25,217.6488,128.25,226.6488" style="stroke:#A9A9A9;stroke-width:1.0;"/></g><!--link R to GNU_R--><g id="link_R_GNU_R"><path d="M1097.5,162.2588 C1097.5,180.1388 1097.5,201.2588 1097.5,220.6488 " fill="none" id="R-to-GNU_R" style="stroke:#A9A9A9;stroke-width:1.0;"/><polygon fill="#A9A9A9" points="1097.5,226.6488,1101.5,217.6488,1097.5,221.6488,1093.5,217.6488,1097.5,226.6488" style="stroke:#A9A9A9;stroke-width:1.0;"/></g><!--link Clojure to ClojureJVM--><g id="link_Clojure_ClojureJVM"><path d="M1245.5,162.2588 C1245.5,180.1388 1245.5,201.2588 1245.5,220.6488 " fill="none" id="Clojure-to-ClojureJVM" style="stroke:#A9A9A9;stroke-width:1.0;"/><polygon fill="#A9A9A9" points="1245.5,226.6488,1249.5,217.6488,1245.5,221.6488,1241.5,217.6488,1245.5,226.6488" style="stroke:#A9A9A9;stroke-width:1.0;"/></g><!--link Lisp to LispImpl--><g id="link_Lisp_LispImpl"><path d="M958.5,162.2588 C958.5,180.1388 958.5,201.2588 958.5,220.6488 " fill="none" id="Lisp-to-LispImpl" style="stroke:#A9A9A9;stroke-width:1.0;"/><polygon fill="#A9A9A9" points="958.5,226.6488,962.5,217.6488,958.5,221.6488,954.5,217.6488,958.5,226.6488" style="stroke:#A9A9A9;stroke-width:1.0;"/></g><!--link Fortran to GFortran--><g id="link_Fortran_GFortran"><path d="M1097.5,370.3088 C1097.5,387.0088 1097.5,405.6188 1097.5,423.6788 " fill="none" id="Fortran-to-GFortran" style="stroke:#A9A9A9;stroke-width:1.0;"/><polygon fill="#A9A9A9" points="1097.5,429.6788,1101.5,420.6788,1097.5,424.6788,1093.5,420.6788,1097.5,429.6788" style="stroke:#A9A9A9;stroke-width:1.0;"/></g><!--link GFortran to GCC--><g id="link_GFortran_GCC"><path d="M1097.5,476.8888 C1097.5,530.4988 1097.5,656.3988 1097.5,656.3988 C1097.5,656.3988 795.58,656.3988 689.73,656.3988 " fill="none" id="GFortran-to-GCC" style="stroke:#A9A9A9;stroke-width:1.0;"/><polygon fill="#A9A9A9" points="683.73,656.3988,692.73,660.3988,688.73,656.3988,692.73,652.3988,683.73,656.3988" style="stroke:#A9A9A9;stroke-width:1.0;"/></g><!--link CPython to C--><g id="link_CPython_C"><path d="M771.25,273.9288 C771.25,303.8388 771.25,351.3988 771.25,351.3988 C771.25,351.3988 658.21,351.3988 614.96,351.3988 " fill="none" id="CPython-to-C" style="stroke:#A9A9A9;stroke-width:1.0;"/><polygon fill="#A9A9A9" points="608.96,351.3988,617.96,355.3988,613.96,351.3988,617.96,347.3988,608.96,351.3988" style="stroke:#A9A9A9;stroke-width:1.0;"/></g><!--link HotSpot to Cpp--><g id="link_HotSpot_Cpp"><path d="M1245.5,476.7088 C1245.5,508.2688 1245.5,560.3988 1245.5,560.3988 C1245.5,560.3988 906.76,560.3988 807.78,560.3988 " fill="none" id="HotSpot-to-Cpp" style="stroke:#A9A9A9;stroke-width:1.0;"/><polygon fill="#A9A9A9" points="801.78,560.3988,810.78,564.3988,806.78,560.3988,810.78,556.3988,801.78,560.3988" style="stroke:#A9A9A9;stroke-width:1.0;"/></g><!--link V8 to Cpp--><g id="link_V8_Cpp"><path d="M982.5,476.7188 C982.5,504.9088 982.5,548.3988 982.5,548.3988 C982.5,548.3988 863.42,548.3988 807.72,548.3988 " fill="none" id="V8-to-Cpp" style="stroke:#A9A9A9;stroke-width:1.0;"/><polygon fill="#A9A9A9" points="801.72,548.3988,810.72,552.3988,806.72,548.3988,810.72,544.3988,801.72,548.3988" style="stroke:#A9A9A9;stroke-width:1.0;"/></g><!--link MRI to C--><g id="link_MRI_C"><path d="M245.5,273.9288 C245.5,303.8388 245.5,351.3988 245.5,351.3988 C245.5,351.3988 504.75,351.3988 572.1,351.3988 " fill="none" id="MRI-to-C" style="stroke:#A9A9A9;stroke-width:1.0;"/><polygon fill="#A9A9A9" points="578.1,351.3988,569.1,347.3988,573.1,351.3988,569.1,355.3988,578.1,351.3988" style="stroke:#A9A9A9;stroke-width:1.0;"/></g><!--link Zend to C--><g id="link_Zend_C"><path d="M394.5,273.9488 C394.5,301.2588 394.5,342.3988 394.5,342.3988 C394.5,342.3988 525.62,342.3988 572.22,342.3988 " fill="none" id="Zend-to-C" style="stroke:#A9A9A9;stroke-width:1.0;"/><polygon fill="#A9A9A9" points="578.22,342.3988,569.22,338.3988,573.22,342.3988,569.22,346.3988,578.22,342.3988" style="stroke:#A9A9A9;stroke-width:1.0;"/></g><!--link SwiftCompiler to Cpp--><g id="link_SwiftCompiler_Cpp"><path d="M790,476.7188 C790,494.7488 790,513.2988 790,529.9888 " fill="none" id="SwiftCompiler-to-Cpp" style="stroke:#A9A9A9;stroke-width:1.0;"/><polygon fill="#A9A9A9" points="790,535.9888,794,526.9888,790,530.9888,786,526.9888,790,535.9888" style="stroke:#A9A9A9;stroke-width:1.0;"/></g><!--link KotlinJVM to Java--><g id="link_KotlinJVM_Java"><path d="M1407.5,273.9288 C1407.5,303.8388 1407.5,351.3988 1407.5,351.3988 C1407.5,351.3988 1320.47,351.3988 1275.4,351.3988 " fill="none" id="KotlinJVM-to-Java" style="stroke:#A9A9A9;stroke-width:1.0;"/><polygon fill="#A9A9A9" points="1269.4,351.3988,1278.4,355.3988,1274.4,351.3988,1278.4,347.3988,1269.4,351.3988" style="stroke:#A9A9A9;stroke-width:1.0;"/></g><!--link Perl5 to C--><g id="link_Perl5_C"><path d="M568.74,258.3988 C577.09,258.3988 583.5,258.3988 583.5,258.3988 C583.5,258.3988 583.5,300.0688 583.5,327.2588 " fill="none" id="Perl5-to-C" style="stroke:#A9A9A9;stroke-width:1.0;"/><polygon fill="#A9A9A9" points="583.5,333.2588,587.5,324.2588,583.5,328.2588,579.5,324.2588,583.5,333.2588" style="stroke:#A9A9A9;stroke-width:1.0;"/></g><!--link LuaImpl to C--><g id="link_LuaImpl_C"><path d="M603.17,242.3988 C594.5,242.3988 588.5,242.3988 588.5,242.3988 C588.5,242.3988 588.5,295.9688 588.5,327.1488 " fill="none" id="LuaImpl-to-C" style="stroke:#A9A9A9;stroke-width:1.0;"/><polygon fill="#A9A9A9" points="588.5,333.1488,592.5,324.1488,588.5,328.1488,584.5,324.1488,588.5,333.1488" style="stroke:#A9A9A9;stroke-width:1.0;"/></g><!--link BEAM to C--><g id="link_BEAM_C"><path d="M107.5,273.8388 C107.5,306.2188 107.5,360.3988 107.5,360.3988 C107.5,360.3988 489.54,360.3988 572.15,360.3988 " fill="none" id="BEAM-to-C" style="stroke:#A9A9A9;stroke-width:1.0;"/><polygon fill="#A9A9A9" points="578.15,360.3988,569.15,356.3988,573.15,360.3988,569.15,364.3988,578.15,360.3988" style="stroke:#A9A9A9;stroke-width:1.0;"/></g><!--link GNU_R to C--><g id="link_GNU_R_C"><path d="M1085.67,273.7288 C1085.67,291.6988 1085.67,313.3988 1085.67,313.3988 C1085.67,313.3988 598.5,313.3988 598.5,313.3988 C598.5,313.3988 598.5,317.2688 598.5,326.9888 " fill="none" id="GNU_R-to-C" style="stroke:#A9A9A9;stroke-width:1.0;"/><polygon fill="#A9A9A9" points="598.5,332.9888,602.5,323.9888,598.5,327.9888,594.5,323.9888,598.5,332.9888" style="stroke:#A9A9A9;stroke-width:1.0;"/></g><!--link GNU_R to Fortran--><g id="link_GNU_R_Fortran"><path d="M1109.33,273.7388 C1109.33,291.7788 1109.33,310.3188 1109.33,327.0188 " fill="none" id="GNU_R-to-Fortran" style="stroke:#A9A9A9;stroke-width:1.0;"/><polygon fill="#A9A9A9" points="1109.33,333.0188,1113.33,324.0188,1109.33,328.0188,1105.33,324.0188,1109.33,333.0188" style="stroke:#A9A9A9;stroke-width:1.0;"/></g><!--link ClojureJVM to Java--><g id="link_ClojureJVM_Java"><path d="M1245.5,273.7388 C1245.5,291.7788 1245.5,310.3188 1245.5,327.0188 " fill="none" id="ClojureJVM-to-Java" style="stroke:#A9A9A9;stroke-width:1.0;"/><polygon fill="#A9A9A9" points="1245.5,333.0188,1249.5,324.0188,1245.5,328.0188,1241.5,324.0188,1245.5,333.0188" style="stroke:#A9A9A9;stroke-width:1.0;"/></g><!--link LispImpl to C--><g id="link_LispImpl_C"><path d="M907.25,273.8188 C907.25,283.9088 907.25,293.3988 907.25,293.3988 C907.25,293.3988 593.5,293.3988 593.5,293.3988 C593.5,293.3988 593.5,310.1688 593.5,327.2488 " fill="none" id="LispImpl-to-C" style="stroke:#A9A9A9;stroke-width:1.0;"/><polygon fill="#A9A9A9" points="593.5,333.2488,597.5,324.2488,593.5,328.2488,589.5,324.2488,593.5,333.2488" style="stroke:#A9A9A9;stroke-width:1.0;"/></g><text fill="#000000" font-family="sans-serif" font-size="14" lengthAdjust="spacing" textLength="135" x="1242.6427" y="698.9322">&#1050;&#1091;&#1088;&#1089; &#1048;&#1085;&#1092;&#1086;&#1088;&#1084;&#1072;&#1090;&#1080;&#1082;&#1080;</text><text fill="#888888" font-family="Monospace" font-size="10" lengthAdjust="spacing" textLength="156" x="1232.1427" y="713.5533">Created&#160;by&#160;IPOL&#160;%date%&#160;%time%</text><!--SRC=[hLdhRXl75Vu_Jp5LQbH2AAafOi08104suqXoBLkGPF_e1S5oEQGsNkqIkql9QXr0ljHjeA2-D6cSfBuaBTe2RX6QjIhQikHNMBw2dw2FqE-SirUILX8WDaJEp3bp-xxld9cHVkHujjkk6prZwisjQVgOLIgyv7WjAx3MzPgnwYOuwJfDRzruaNPD8ogO6xuV7M6Mtk_vNhJY_CRejtuwr7MqBUztpbetUj7t_B1bsMPazzUwH4xacYCzNDCqNlsKPLzg1dxRgrTzrm_qvfeJZV3o0wn9F6ekkWnvq5H5kv9jQFMkOpN9hMvQZXqvNbD7QqO7nhKYn_V2DQSLQbKpqQOndcu5FZclavjhUSssrJHXHTl-UijnJG1Fowlh3IU8sfQhrorxpV5Cg31_0fjIl75zDkcivmAhjQP_vUbZBLIFAINOwMfWhCZKTMrBBooTFwkFrL4zfez5pZfv5RQ76QAjbj5-4Atv1KFTDAos6wsQor6k0HiVM4NkTSwlcq5iojQZi6Nx04DlcBTjpDre5Fog0CZtCFVhfyfSXiQh7JTl6wiqtiaWy3V5NBS2k5jR1UlG20r3_vLIFz7nD_5dyUFuY_YU2emTWGQmCRQq1UoyCMs5Mef5unbhms8J5GODAtRWjABCBDMYKvLjrLBJcszAOwjLR9xpkNNEBpOkjqCPdGfbGsqhCTIsIdkPNvADp2-L9dr3vbnPiuBIj2kRJaEcu5BHz7C_WhpO9iMYSHMYA-m-hnQTvgtmad5TzaZAfRbjonLikLJQXWca6nMAXhDjwO7lOlDfrxdi16oHOiaOKBIAaOib90N64bYk_q4xC8AOb4jBSCAMh065ek4z165W2M99cKNtHVmW_alyCBuNVma1VetQe_YnibF9OyA20fDoqJnN5HdXkzGhsnMNIZryZYZAIdgyQKyaqahRYgu1b6MpdKj5q-BoWiw4XahHzWlAQgUz9l8FcwbUj4-TExsgf_Mo7xfRiZ4f5drOSTb2Sn6EMgOeSFhCnSM2854h-aIXR6HrfOJJt7m2ttofcJKtC3irZPgz1HKUp_Hul6XQkb2TN7PyNH3cmdhBBItWt0KjCaFf_UKoXomlxNiwtLhIDB2tbLFLiy2pUdPXPIaJtz14HGNE5ILu5-9x1EdzDRuD4Vuhleyi-Ac6Ac_7_uG9LGmEZzieVetFps5whCSzPFW9HPy8PZzQQVbHjiwadbWldk36YoUI-gdJ9nTruadbOlRLhsxUfSa-vSNSG-Fj-E_u_aQ9zlNav6mM1vHNkI6TBq-qt8mPgroWw41EpSio38T6sYurH0SxvV50wPNR90P8z5mbqIEJSfaLBWcKwucUHSJKKDQkA9GDkLZpDCa64cgI5sL5KAZ8aiShgP64nysYGCYCQwdS9Ejn4yCjYIwlByi4hBzKT898fZPIb8oPIYjHa7HDvJHNQWNGnEm8CeNb-wXIvlkAfVM06rIroBDAXSKr78eNJsH539yuLRFjS7j6NSAaOkA45pegANL9HqvKKXJ6f287OOcoRFICBsxXSnzC2MFvEGUoH9V9mLQYAoUGYJkUh21XAwbnZ4YHYHagPoUAocdArvJIb7HZ7Xx4T_3p6SF-3t1odyFATlrsNV-sb7YAUOygQHpBxNLHBgyIqulgGwLigqLNOfnc_UlzxVvLZP4F-ZVYm_vs_2BkzA_5lVXvt5FACvjqcLK_m6L-jCVtlCpNhD2nwJxiU0vVwfMcQpfCY9U1c_xmLVtTlDyFSa-tsy66gIibMr5Nz1KzKvi5Pq_YmtWlFW2IluztyTthtvgPhirUWSl_7dxox0fn-n9OxyPFyRClFl4ksL_z-TymVvKOEzC8jbx_AXZP9MQcaSeFuwVzw_5-_-DfN4OEqVeIdmSqHl-QpF2d6nZYDeX5Bx3QYP_thsaU_EPT6Zpkzc_5UpJ07enTcW3Jlm3zcAZ_yHM6BjcK2F4X9uLFyFDb9iJIBMjGWHmt4AaLrDFwqYyLRLvdg-vX4xVwDmaTFRuIWJixyMKQ9zGK_gdu8R0uXDikLWUblaI1mEaI4757Cpo_uye1FlyJ7sfeDx4Ho6Z3PmTJlkZlACowfqlUZCKE-dJqE9gUz7V0sW4DqqNnAfgUfvxNURWkaBureUAk1XFRu0As6FjwIdq8qPTmlCe33Y_W7VN-h0RbFHA9fZ4euFw0-W66tQ5nUFLOorF2HxECA22xsOeLCqQqxmln1E54PMZa9vZq6VeE3FYIY6RLGKZzF_O_GkaP3KeAOdHPcoXtY9sufuagV9rPM9tamKhinRs9AVLhf9NIayQZi4bUDLo66aGEgA_gL0ltyerWD5fB1qi4eud-zNZIFLN3VUpf2IKgsXvjbJPyoF7n7EkSJfQA9Uv25HqEh3tITjojA5eyND4RIEzgPkK9DtKmzpLDeYBQQV8N1DK8d07K4AcQPam3cgE8usgVjtHDzMz090U8GaABOhL3uKjqIi1LTBumtZ_DHkiGMVSm1EZ4KZ1T9jUA5f4UOEp_qfWwvNTNn9fjhhz3_1Jf6NKmEC4YA2euBT3l5rg1YPAmvleIwcbSIqDEvMZvK71dGnqTs8U8Wmv7KpUDv8wWnIHs6EOHb8naX17PftNqhrT8BBiK-2b9NInkcv2b_2jSS0oCKFSHGOfDZDer4wcHHNeiX5rILY5ByG0gYSfKh-LOfHRQ7eUgB9bLrUKj7t0EG7RAGoUP14LI52KbKLjlA3GfY4lf6Wq9eIZbT8xAqYLGzVWPtCuc7MzobSBxEsHktWXbMA9fZsdk945LtZ_DqiKMNvCQXyAq04Mg2Kp_e93BYHCc6YFeCT8MGBf5554Uk8v2Xm76hMTCg_6iVgW7SIPrPKj9Cj-7oWeYfs7Pk8oT0mGRHfzoF2lOqgSl6xiTMJLNeknyE_fP6ZxYA7wvMug_jDGij8mdSQfjVi49jdSO5X9n4PgAvWFhAGkoWxpGGKRjnSy6eTmTgPMAokBZW1dARp39999XgaiNflYmUGXG8FVivdXOlb1G7_Rx6v6BhZjwnfcTiUc-zqxDRPlPANFPLFHKpV7mwRUZcMaspivCExC9iWLe4qnFRKM6e93tA2efebIkqiqtrV2TyW6OTdmDXcb6xGANEqYZ_O_mDJP6QLIGafkKE8-DfP0h_MseSJRFeCCqMQvMcj7QfdZAJmNga_55sNiqrgJrxuktxLfX2AnRM_OGrWMaL_nsO8lWv9SfNA-cG2VL8jJt1l9RYdbXf0Js-VQwvKtYibqdlLTqoxNmjexCvKWZJ-6K2F6euJoY_OQsqj_Kwyt0YIBZQGLlIwyvpRL9rsmOT-IlygU-3GTWy840SHGEIydSYDjMEngJ27uhXK5QCmWU4HzoDPTZO6HY6dKfPLpErq8JR70E00PjDwADrTksF4aibU9GRmUqKpoPh0QzMvmer8Qp1I2RKWkHjl6WJ__WnBYsq8EUDf6l5JsZRBo0VCA-WLCWp925kUw4boeQxxveqmykwNKJXlA7aIRzTSF18vZmnxJ0Xvgn2XyZ1ZfqC9bfD73GuEs5LniU3xnCZnzkoU9VRNyUQjTlEhOaJgL-t73zpKGbrKhsLgZeCJot0Fd4e0TTL8QiQUIN1XXX7Tavxv8xvfsJ-sU5cOV15oaCTwRSNhH_zsVs_m40]--></g></svg>